<?xml version="1.0" encoding="utf-8"?>
<!-- Generator: Adobe Illustrator 18.1.1, SVG Export Plug-In . SVG Version: 6.00 Build 0)  -->
<svg version="1.1" id="Layer_1" xmlns="http://www.w3.org/2000/svg" xmlns:xlink="http://www.w3.org/1999/xlink" x="0px" y="0px"
	 width="80px" height="80px" viewBox="0 0 80 80" enable-background="new 0 0 80 80" xml:space="preserve">
<g>
	<linearGradient id="SVGID_1_" gradientUnits="userSpaceOnUse" x1="7.6734" y1="21.961" x2="71.402" y2="58.7547">
		<stop  offset="0" style="stop-color:#8C3DA8"/>
		<stop  offset="0.115" style="stop-color:#953CA6"/>
		<stop  offset="0.3055" style="stop-color:#AF39A2"/>
		<stop  offset="0.3397" style="stop-color:#B438A1"/>
		<stop  offset="0.4659" style="stop-color:#C33B8E"/>
		<stop  offset="0.7141" style="stop-color:#E7435D"/>
		<stop  offset="0.9889" style="stop-color:#F98D34"/>
	</linearGradient>
	<circle fill="#F5F5F5" stroke="url(#SVGID_1_)" stroke-width="3.5758" stroke-miterlimit="10" cx="39.5" cy="40.4" r="35"/>
	<g>
		<defs>
			<path id="SVGID_2_" d="M33.6,39.6c0-3.5,2.9-6.4,6.4-6.4c3.5,0,6.4,2.9,6.4,6.4c0,3.5-2.9,6.4-6.4,6.4
				C36.5,46,33.6,43.2,33.6,39.6 M30.1,39.6c0,5.4,4.4,9.9,9.9,9.9c5.4,0,9.9-4.4,9.9-9.9s-4.4-9.9-9.9-9.9
				C34.6,29.8,30.1,34.2,30.1,39.6 M48,29.4c0,1.3,1,2.3,2.3,2.3c1.3,0,2.3-1,2.3-2.3c0-1.3-1-2.3-2.3-2.3C49,27.1,48,28.1,48,29.4
				 M32.3,55.3c-1.9-0.1-2.9-0.4-3.6-0.7c-0.9-0.3-1.5-0.8-2.2-1.4c-0.7-0.7-1.1-1.3-1.4-2.2c-0.3-0.7-0.6-1.7-0.7-3.6
				c-0.1-2-0.1-2.6-0.1-7.8c0-5.1,0-5.7,0.1-7.8c0.1-1.9,0.4-2.9,0.7-3.6c0.3-0.9,0.8-1.5,1.4-2.2c0.7-0.7,1.3-1.1,2.2-1.4
				c0.7-0.3,1.7-0.6,3.6-0.7c2-0.1,2.6-0.1,7.8-0.1c5.1,0,5.7,0,7.8,0.1c1.9,0.1,2.9,0.4,3.6,0.7c0.9,0.3,1.5,0.8,2.2,1.4
				c0.7,0.7,1.1,1.3,1.4,2.2c0.3,0.7,0.6,1.7,0.7,3.6c0.1,2,0.1,2.6,0.1,7.8c0,5.1,0,5.7-0.1,7.8c-0.1,1.9-0.4,2.9-0.7,3.6
				c-0.3,0.9-0.8,1.5-1.4,2.2c-0.7,0.7-1.3,1.1-2.2,1.4c-0.7,0.3-1.7,0.6-3.6,0.7c-2,0.1-2.6,0.1-7.8,0.1
				C34.9,55.4,34.3,55.4,32.3,55.3 M32.1,20.5c-2,0.1-3.4,0.4-4.7,0.9c-1.3,0.5-2.3,1.1-3.4,2.2c-1.1,1.1-1.7,2.1-2.2,3.4
				c-0.5,1.2-0.8,2.6-0.9,4.7c-0.1,2-0.1,2.7-0.1,7.9s0,5.9,0.1,7.9c0.1,2,0.4,3.4,0.9,4.7c0.5,1.3,1.1,2.3,2.2,3.4
				c1.1,1.1,2.1,1.7,3.4,2.2c1.2,0.5,2.6,0.8,4.7,0.9c2,0.1,2.7,0.1,7.9,0.1c5.2,0,5.9,0,7.9-0.1c2-0.1,3.4-0.4,4.7-0.9
				c1.3-0.5,2.3-1.1,3.4-2.2c1.1-1.1,1.7-2.1,2.2-3.4c0.5-1.2,0.8-2.6,0.9-4.7c0.1-2,0.1-2.7,0.1-7.9s0-5.9-0.1-7.9
				c-0.1-2-0.4-3.4-0.9-4.7c-0.5-1.3-1.1-2.3-2.2-3.4c-1.1-1.1-2.1-1.7-3.4-2.2c-1.2-0.5-2.6-0.8-4.7-0.9c-2-0.1-2.7-0.1-7.9-0.1
				C34.8,20.4,34.1,20.4,32.1,20.5"/>
		</defs>
		<linearGradient id="SVGID_3_" gradientUnits="userSpaceOnUse" x1="20.8017" y1="39.6287" x2="59.23" y2="39.6287">
			<stop  offset="0.1324" style="stop-color:#8C3DA8"/>
			<stop  offset="0.2247" style="stop-color:#953EA0"/>
			<stop  offset="0.3781" style="stop-color:#AF3F8B"/>
			<stop  offset="0.5726" style="stop-color:#D84269"/>
			<stop  offset="0.6362" style="stop-color:#E7435D"/>
			<stop  offset="0.9889" style="stop-color:#F98D34"/>
		</linearGradient>
		<use xlink:href="#SVGID_2_"  overflow="visible" fill="url(#SVGID_3_)"/>
		<clipPath id="SVGID_4_">
			<use xlink:href="#SVGID_2_"  overflow="visible"/>
		</clipPath>
		<defs>
			<filter id="Adobe_OpacityMaskFilter" filterUnits="userSpaceOnUse" x="-71.8" y="-72.2" width="223.7" height="223.6">
				<feColorMatrix  type="matrix" values="1 0 0 0 0  0 1 0 0 0  0 0 1 0 0  0 0 0 1 0"/>
			</filter>
		</defs>
		<mask maskUnits="userSpaceOnUse" x="-71.8" y="-72.2" width="223.7" height="223.6" id="SVGID_5_">
			<g filter="url(#Adobe_OpacityMaskFilter)">
				<rect x="-71.8" y="-72.2" clip-path="url(#SVGID_4_)" width="223.7" height="223.6"/>
				<g enable-background="new    ">
					<rect x="13.8" y="13.4" clip-path="url(#SVGID_4_)" fill="#FFFFFF" width="52.4" height="52.4"/>
				</g>
			</g>
		</mask>
		<g clip-path="url(#SVGID_4_)" mask="url(#SVGID_5_)">
			<g>
				<defs>
					<rect id="SVGID_6_" x="-71.8" y="-72.2" width="223.7" height="223.6"/>
				</defs>
				<linearGradient id="SVGID_7_" gradientUnits="userSpaceOnUse" x1="-71.7756" y1="39.6287" x2="151.9162" y2="39.6287">
					<stop  offset="0.1324" style="stop-color:#8C3DA8"/>
					<stop  offset="0.2247" style="stop-color:#953EA0"/>
					<stop  offset="0.3781" style="stop-color:#AF3F8B"/>
					<stop  offset="0.5726" style="stop-color:#D84269"/>
					<stop  offset="0.6362" style="stop-color:#E7435D"/>
					<stop  offset="0.9889" style="stop-color:#F98D34"/>
				</linearGradient>
				<use xlink:href="#SVGID_6_"  overflow="visible" fill="url(#SVGID_7_)"/>
				<clipPath id="SVGID_8_">
					<use xlink:href="#SVGID_6_"  overflow="visible"/>
				</clipPath>
				<g clip-path="url(#SVGID_8_)">
					<defs>
						<rect id="SVGID_9_" x="-71.8" y="-72.2" width="223.7" height="223.6"/>
					</defs>
					<linearGradient id="SVGID_10_" gradientUnits="userSpaceOnUse" x1="-71.7756" y1="39.6286" x2="151.9162" y2="39.6286">
						<stop  offset="0.1324" style="stop-color:#8C3DA8"/>
						<stop  offset="0.2247" style="stop-color:#953EA0"/>
						<stop  offset="0.3781" style="stop-color:#AF3F8B"/>
						<stop  offset="0.5726" style="stop-color:#D84269"/>
						<stop  offset="0.6362" style="stop-color:#E7435D"/>
						<stop  offset="0.9889" style="stop-color:#F98D34"/>
					</linearGradient>
					<use xlink:href="#SVGID_9_"  overflow="visible" fill="url(#SVGID_10_)"/>
					<clipPath id="SVGID_11_">
						<use xlink:href="#SVGID_9_"  overflow="visible"/>
					</clipPath>
					<linearGradient id="SVGID_12_" gradientUnits="userSpaceOnUse" x1="-71.7756" y1="39.6286" x2="151.807" y2="39.6286">
						<stop  offset="0.1324" style="stop-color:#8C3DA8"/>
						<stop  offset="0.2247" style="stop-color:#953EA0"/>
						<stop  offset="0.3781" style="stop-color:#AF3F8B"/>
						<stop  offset="0.5726" style="stop-color:#D84269"/>
						<stop  offset="0.6362" style="stop-color:#E7435D"/>
						<stop  offset="0.9889" style="stop-color:#F98D34"/>
					</linearGradient>
					<rect x="-71.8" y="-72.2" clip-path="url(#SVGID_11_)" fill="url(#SVGID_12_)" width="223.6" height="223.6"/>
				</g>
				<g clip-path="url(#SVGID_8_)">
					<defs>
						<rect id="SVGID_13_" x="-38" y="-35.5" width="190" height="167.3"/>
					</defs>
					<linearGradient id="SVGID_14_" gradientUnits="userSpaceOnUse" x1="-38.0417" y1="48.144" x2="151.9159" y2="48.144">
						<stop  offset="0.1324" style="stop-color:#8C3DA8"/>
						<stop  offset="0.2247" style="stop-color:#953EA0"/>
						<stop  offset="0.3781" style="stop-color:#AF3F8B"/>
						<stop  offset="0.5726" style="stop-color:#D84269"/>
						<stop  offset="0.6362" style="stop-color:#E7435D"/>
						<stop  offset="0.9889" style="stop-color:#F98D34"/>
					</linearGradient>
					<use xlink:href="#SVGID_13_"  overflow="visible" fill="url(#SVGID_14_)"/>
					<clipPath id="SVGID_15_">
						<use xlink:href="#SVGID_13_"  overflow="visible"/>
					</clipPath>
					<g clip-path="url(#SVGID_15_)">
						<defs>
							<rect id="SVGID_16_" x="-38" y="-35.5" width="190" height="167.3"/>
						</defs>
						<linearGradient id="SVGID_17_" gradientUnits="userSpaceOnUse" x1="-38.0416" y1="48.1441" x2="151.9162" y2="48.1441">
							<stop  offset="0.1324" style="stop-color:#8C3DA8"/>
							<stop  offset="0.2247" style="stop-color:#953EA0"/>
							<stop  offset="0.3781" style="stop-color:#AF3F8B"/>
							<stop  offset="0.5726" style="stop-color:#D84269"/>
							<stop  offset="0.6362" style="stop-color:#E7435D"/>
							<stop  offset="0.9889" style="stop-color:#F98D34"/>
						</linearGradient>
						<use xlink:href="#SVGID_16_"  overflow="visible" fill="url(#SVGID_17_)"/>
						<clipPath id="SVGID_18_">
							<use xlink:href="#SVGID_16_"  overflow="visible"/>
						</clipPath>
						<g clip-path="url(#SVGID_18_)">
							
								<image overflow="visible" width="435" height="383" xlink:href="925322BD3274E47F.png"  transform="matrix(0.4367 0 0 0.4367 -38.0416 -35.481)">
							</image>
						</g>
					</g>
				</g>
				<g clip-path="url(#SVGID_8_)">
					<defs>
						<rect id="SVGID_19_" x="-57.3" y="-26.3" width="183" height="176.4"/>
					</defs>
					<linearGradient id="SVGID_20_" gradientUnits="userSpaceOnUse" x1="-57.2557" y1="61.8996" x2="125.7151" y2="61.8996">
						<stop  offset="0.1324" style="stop-color:#8C3DA8"/>
						<stop  offset="0.2247" style="stop-color:#953EA0"/>
						<stop  offset="0.3781" style="stop-color:#AF3F8B"/>
						<stop  offset="0.5726" style="stop-color:#D84269"/>
						<stop  offset="0.6362" style="stop-color:#E7435D"/>
						<stop  offset="0.9889" style="stop-color:#F98D34"/>
					</linearGradient>
					<use xlink:href="#SVGID_19_"  overflow="visible" fill="url(#SVGID_20_)"/>
					<clipPath id="SVGID_21_">
						<use xlink:href="#SVGID_19_"  overflow="visible"/>
					</clipPath>
					<g transform="matrix(1 0 0 1 -3.814697e-06 0)" clip-path="url(#SVGID_21_)">
						
							<image overflow="visible" width="419" height="404" xlink:href="925322BD3274E47D.png"  transform="matrix(0.4367 0 0 0.4367 -57.2557 -26.3107)">
						</image>
					</g>
				</g>
				<g clip-path="url(#SVGID_8_)">
					<defs>
						<rect id="SVGID_22_" x="-35" y="7.3" width="124.9" height="124.9"/>
					</defs>
					<linearGradient id="SVGID_23_" gradientUnits="userSpaceOnUse" x1="-34.9848" y1="69.76" x2="89.907" y2="69.76">
						<stop  offset="0.1324" style="stop-color:#8C3DA8"/>
						<stop  offset="0.2247" style="stop-color:#953EA0"/>
						<stop  offset="0.3781" style="stop-color:#AF3F8B"/>
						<stop  offset="0.5726" style="stop-color:#D84269"/>
						<stop  offset="0.6362" style="stop-color:#E7435D"/>
						<stop  offset="0.9889" style="stop-color:#F98D34"/>
					</linearGradient>
					<use xlink:href="#SVGID_22_"  overflow="visible" fill="url(#SVGID_23_)"/>
					<clipPath id="SVGID_24_">
						<use xlink:href="#SVGID_22_"  overflow="visible"/>
					</clipPath>
					<g clip-path="url(#SVGID_24_)">
						<defs>
							<rect id="SVGID_25_" x="-35" y="7.3" width="124.9" height="124.9"/>
						</defs>
						<linearGradient id="SVGID_26_" gradientUnits="userSpaceOnUse" x1="-34.9848" y1="69.7599" x2="89.907" y2="69.7599">
							<stop  offset="0.1324" style="stop-color:#8C3DA8"/>
							<stop  offset="0.2247" style="stop-color:#953EA0"/>
							<stop  offset="0.3781" style="stop-color:#AF3F8B"/>
							<stop  offset="0.5726" style="stop-color:#D84269"/>
							<stop  offset="0.6362" style="stop-color:#E7435D"/>
							<stop  offset="0.9889" style="stop-color:#F98D34"/>
						</linearGradient>
						<use xlink:href="#SVGID_25_"  overflow="visible" fill="url(#SVGID_26_)"/>
						<clipPath id="SVGID_27_">
							<use xlink:href="#SVGID_25_"  overflow="visible"/>
						</clipPath>
						<g transform="matrix(1 0 0 1 0 -4.768372e-07)" clip-path="url(#SVGID_27_)">
							
								<image overflow="visible" width="286" height="286" xlink:href="925322BD3274E483.png"  transform="matrix(0.4367 0 0 0.4367 -34.9848 7.314)">
							</image>
						</g>
					</g>
				</g>
				<g clip-path="url(#SVGID_8_)">
					<defs>
						<rect id="SVGID_28_" x="-17.5" y="27.8" width="100.9" height="100.9"/>
					</defs>
					<linearGradient id="SVGID_29_" gradientUnits="userSpaceOnUse" x1="-17.5174" y1="78.2754" x2="83.3567" y2="78.2754">
						<stop  offset="0.1324" style="stop-color:#8C3DA8"/>
						<stop  offset="0.2247" style="stop-color:#953EA0"/>
						<stop  offset="0.3781" style="stop-color:#AF3F8B"/>
						<stop  offset="0.5726" style="stop-color:#D84269"/>
						<stop  offset="0.6362" style="stop-color:#E7435D"/>
						<stop  offset="0.9889" style="stop-color:#F98D34"/>
					</linearGradient>
					<use xlink:href="#SVGID_28_"  overflow="visible" fill="url(#SVGID_29_)"/>
					<clipPath id="SVGID_30_">
						<use xlink:href="#SVGID_28_"  overflow="visible"/>
					</clipPath>
					<g clip-path="url(#SVGID_30_)">
						<defs>
							<rect id="SVGID_31_" x="-17.5" y="27.8" width="100.9" height="100.9"/>
						</defs>
						<linearGradient id="SVGID_32_" gradientUnits="userSpaceOnUse" x1="-17.5174" y1="78.2753" x2="83.3567" y2="78.2753">
							<stop  offset="0.1324" style="stop-color:#8C3DA8"/>
							<stop  offset="0.2247" style="stop-color:#953EA0"/>
							<stop  offset="0.3781" style="stop-color:#AF3F8B"/>
							<stop  offset="0.5726" style="stop-color:#D84269"/>
							<stop  offset="0.6362" style="stop-color:#E7435D"/>
							<stop  offset="0.9889" style="stop-color:#F98D34"/>
						</linearGradient>
						<use xlink:href="#SVGID_31_"  overflow="visible" fill="url(#SVGID_32_)"/>
						<clipPath id="SVGID_33_">
							<use xlink:href="#SVGID_31_"  overflow="visible"/>
						</clipPath>
						<g clip-path="url(#SVGID_33_)">
							
								<image overflow="visible" width="231" height="231" xlink:href="925322BD3274E485.png"  transform="matrix(0.4367 0 0 0.4367 -17.5174 27.8382)">
							</image>
						</g>
					</g>
				</g>
				<g clip-path="url(#SVGID_8_)">
					<defs>
						<rect id="SVGID_34_" x="-24.1" y="34.4" width="99.6" height="96.5"/>
					</defs>
					<linearGradient id="SVGID_35_" gradientUnits="userSpaceOnUse" x1="-24.0677" y1="82.6421" x2="75.4964" y2="82.6421">
						<stop  offset="0.1324" style="stop-color:#8C3DA8"/>
						<stop  offset="0.2247" style="stop-color:#953EA0"/>
						<stop  offset="0.3781" style="stop-color:#AF3F8B"/>
						<stop  offset="0.5726" style="stop-color:#D84269"/>
						<stop  offset="0.6362" style="stop-color:#E7435D"/>
						<stop  offset="0.9889" style="stop-color:#F98D34"/>
					</linearGradient>
					<use xlink:href="#SVGID_34_"  overflow="visible" fill="url(#SVGID_35_)"/>
					<clipPath id="SVGID_36_">
						<use xlink:href="#SVGID_34_"  overflow="visible"/>
					</clipPath>
					<g clip-path="url(#SVGID_36_)">
						
							<image overflow="visible" width="228" height="221" xlink:href="925322BD3274E487.png"  transform="matrix(0.4367 0 0 0.4367 -24.0677 34.3885)">
						</image>
					</g>
				</g>
				<g clip-path="url(#SVGID_8_)">
					<defs>
						<rect id="SVGID_37_" x="-71.8" y="-72.2" width="223.7" height="223.6"/>
					</defs>
					<linearGradient id="SVGID_38_" gradientUnits="userSpaceOnUse" x1="-71.7756" y1="39.6286" x2="151.9162" y2="39.6286">
						<stop  offset="0.1324" style="stop-color:#8C3DA8"/>
						<stop  offset="0.2247" style="stop-color:#953EA0"/>
						<stop  offset="0.3781" style="stop-color:#AF3F8B"/>
						<stop  offset="0.5726" style="stop-color:#D84269"/>
						<stop  offset="0.6362" style="stop-color:#E7435D"/>
						<stop  offset="0.9889" style="stop-color:#F98D34"/>
					</linearGradient>
					<use xlink:href="#SVGID_37_"  overflow="visible" fill="url(#SVGID_38_)"/>
					<clipPath id="SVGID_39_">
						<use xlink:href="#SVGID_37_"  overflow="visible"/>
					</clipPath>
					<g opacity="0.45" clip-path="url(#SVGID_39_)">
						<g>
							<defs>
								<rect id="SVGID_40_" x="-68.6" y="-46.8" width="178.2" height="91.7"/>
							</defs>
							<linearGradient id="SVGID_41_" gradientUnits="userSpaceOnUse" x1="-68.6095" y1="-0.9829" x2="109.5578" y2="-0.9829">
								<stop  offset="0.1324" style="stop-color:#8C3DA8"/>
								<stop  offset="0.2247" style="stop-color:#953EA0"/>
								<stop  offset="0.3781" style="stop-color:#AF3F8B"/>
								<stop  offset="0.5726" style="stop-color:#D84269"/>
								<stop  offset="0.6362" style="stop-color:#E7435D"/>
								<stop  offset="0.9889" style="stop-color:#F98D34"/>
							</linearGradient>
							<use xlink:href="#SVGID_40_"  overflow="visible" fill="url(#SVGID_41_)"/>
							<clipPath id="SVGID_42_">
								<use xlink:href="#SVGID_40_"  overflow="visible"/>
							</clipPath>
							<g clip-path="url(#SVGID_42_)">
								<defs>
									<rect id="SVGID_43_" x="-68.6" y="-46.8" width="178.2" height="91.7"/>
								</defs>
								<linearGradient id="SVGID_44_" gradientUnits="userSpaceOnUse" x1="-68.6095" y1="-0.983" x2="109.5578" y2="-0.983">
									<stop  offset="0.1324" style="stop-color:#8C3DA8"/>
									<stop  offset="0.2247" style="stop-color:#953EA0"/>
									<stop  offset="0.3781" style="stop-color:#AF3F8B"/>
									<stop  offset="0.5726" style="stop-color:#D84269"/>
									<stop  offset="0.6362" style="stop-color:#E7435D"/>
									<stop  offset="0.9889" style="stop-color:#F98D34"/>
								</linearGradient>
								<use xlink:href="#SVGID_43_"  overflow="visible" fill="url(#SVGID_44_)"/>
								<clipPath id="SVGID_45_">
									<use xlink:href="#SVGID_43_"  overflow="visible"/>
								</clipPath>
								<g clip-path="url(#SVGID_45_)">
									
										<image overflow="visible" width="408" height="210" xlink:href="925322BD3274E484.png"  transform="matrix(0.4367 0 0 0.4367 -68.6095 -46.8348)">
									</image>
								</g>
							</g>
						</g>
					</g>
				</g>
			</g>
		</g>
	</g>
</g>
</svg>
