<?xml version="1.0" encoding="utf-8"?>
<!-- Generator: Adobe Illustrator 18.1.1, SVG Export Plug-In . SVG Version: 6.00 Build 0)  -->
<svg version="1.1" id="Layer_1" xmlns="http://www.w3.org/2000/svg" xmlns:xlink="http://www.w3.org/1999/xlink" x="0px" y="0px"
	 width="80px" height="80px" viewBox="0 0 80 80" enable-background="new 0 0 80 80" xml:space="preserve">
<g>
	<circle fill="#F5F5F5" stroke="#CB2027" stroke-width="3.5758" stroke-miterlimit="10" cx="39.7" cy="40.6" r="35"/>
	<g>
		<path fill="#CB2027" d="M38.6,22.9c-5.7,0.6-11.4,5.3-11.7,11.9c-0.1,4,1,7.1,4.9,7.9c1.7-2.9-0.5-3.6-0.9-5.7
			c-1.4-8.7,10.1-14.7,16.1-8.6c4.2,4.2,1.4,17.2-5.3,15.9c-6.4-1.3,3.1-11.6-2-13.7c-4.2-1.7-6.4,5-4.4,8.4
			c-1.2,5.7-3.7,11.1-2.6,18.3c3.3-2.4,4.4-6.9,5.3-11.7c1.6,1,2.5,2,4.6,2.2c7.8,0.6,12.1-7.7,11-15.4
			C52.6,25.5,45.8,22.1,38.6,22.9z"/>
	</g>
</g>
</svg>
