<?xml version="1.0" encoding="utf-8"?>
<!-- Generator: Adobe Illustrator 18.1.1, SVG Export Plug-In . SVG Version: 6.00 Build 0)  -->
<svg version="1.1" id="Layer_1" xmlns="http://www.w3.org/2000/svg" xmlns:xlink="http://www.w3.org/1999/xlink" x="0px" y="0px"
	 viewBox="-980 640.6 80 80" enable-background="new -980 640.6 80 80" xml:space="preserve">
<g>
	<circle fill="#F5F5F5" stroke="#1DA1F2" stroke-width="3.5758" stroke-miterlimit="10" cx="-940.3" cy="681.2" r="35"/>
</g>
<path fill="#1DA1F2" d="M-947.2,697.7c14.4,0,22.3-11.9,22.3-22.3c0-0.3,0-0.7,0-1c1.5-1.1,2.9-2.5,3.9-4.1c-1.4,0.6-2.9,1-4.5,1.2
	c1.6-1,2.9-2.5,3.4-4.3c-1.5,0.9-3.2,1.6-5,1.9c-3-3.2-7.9-3.3-11.1-0.3c-2,1.9-2.9,4.8-2.3,7.5c-6.3-0.3-12.2-3.3-16.1-8.2
	c-2.1,3.6-1,8.2,2.4,10.5c-1.2,0-2.5-0.4-3.6-1c0,0,0,0.1,0,0.1c0,3.7,2.6,6.9,6.3,7.7c-1.2,0.3-2.4,0.4-3.5,0.1
	c1,3.2,4,5.4,7.3,5.4c-2.8,2.2-6.2,3.4-9.7,3.4c-0.6,0-1.2,0-1.9-0.1C-955.6,696.5-951.4,697.7-947.2,697.7"/>
</svg>
